<svg xmlns="http://www.w3.org/2000/svg" xmlns:xlink="http://www.w3.org/1999/xlink" width="3750" zoomAndPan="magnify" viewBox="0 0 2812.5 2812.499955" height="3750" preserveAspectRatio="xMidYMid meet" version="1.0"><path fill="#a6a6a6" d="M 602.0625 1640.929688 C 602.0625 1704.082031 613.433594 1768.496094 641.21875 1811.441406 C 661.429688 1841.753906 691.742188 1861.964844 734.683594 1861.964844 C 758.683594 1861.964844 782.679688 1859.4375 810.46875 1841.753906 C 842.046875 1821.546875 879.9375 1783.652344 930.460938 1712.921875 C 991.085938 1629.5625 1060.554688 1519.675781 1119.917969 1426.207031 C 1142.652344 1389.582031 1164.125 1355.476562 1184.332031 1325.164062 L 1262.644531 1203.910156 C 1223.488281 1149.597656 1180.542969 1091.5 1131.285156 1046.027344 C 1078.238281 999.296875 1020.136719 965.191406 953.195312 965.191406 C 915.300781 965.191406 881.199219 977.824219 849.625 1000.558594 C 811.730469 1025.820312 777.628906 1064.976562 744.789062 1112.972656 C 701.847656 1179.914062 665.21875 1263.273438 641.21875 1354.214844 C 639.957031 1355.476562 639.957031 1355.476562 639.957031 1356.742188 C 615.957031 1447.679688 602.0625 1544.9375 602.0625 1640.929688 Z M 585.644531 1848.070312 C 549.015625 1792.496094 535.121094 1715.449219 535.121094 1640.929688 C 535.121094 1539.882812 549.015625 1436.3125 575.539062 1339.058594 C 575.539062 1339.058594 575.539062 1337.792969 575.539062 1336.53125 C 602.0625 1239.277344 641.21875 1149.597656 689.214844 1076.34375 C 725.84375 1020.769531 766.261719 976.5625 811.730469 944.984375 C 854.675781 914.671875 901.410156 898.25 953.195312 898.25 C 1039.082031 898.25 1112.339844 938.667969 1175.492188 996.769531 C 1236.117188 1051.082031 1286.640625 1120.550781 1330.847656 1183.703125 C 1338.425781 1195.070312 1339.691406 1208.964844 1332.109375 1221.59375 L 1239.90625 1361.792969 C 1220.960938 1390.84375 1199.488281 1424.945312 1176.753906 1461.574219 C 1116.128906 1556.304688 1046.660156 1666.191406 984.769531 1752.078125 C 927.933594 1830.386719 884.988281 1873.332031 845.835938 1898.59375 C 804.152344 1925.117188 770.050781 1930.167969 734.683594 1930.167969 C 665.21875 1930.167969 617.222656 1897.328125 585.644531 1848.070312 Z M 490.914062 958.878906 C 508.597656 932.355469 526.28125 907.09375 545.226562 884.359375 C 634.902344 774.472656 744.789062 701.214844 863.515625 674.691406 C 983.507812 648.164062 1109.8125 668.375 1229.804688 746.683594 C 1250.011719 759.316406 1268.957031 773.207031 1287.902344 788.367188 C 1287.902344 789.628906 1289.167969 789.628906 1289.167969 789.628906 C 1318.21875 813.625 1347.269531 840.152344 1376.316406 871.726562 C 1397.789062 893.199219 1419.261719 917.195312 1440.734375 944.984375 C 1491.257812 880.570312 1546.832031 817.414062 1611.246094 766.894531 C 1689.554688 705.003906 1777.96875 664.585938 1879.015625 664.585938 C 1964.902344 664.585938 2048.265625 688.582031 2125.3125 736.578125 C 2201.09375 783.3125 2270.5625 852.78125 2329.925781 942.457031 C 2394.34375 1037.1875 2442.339844 1144.546875 2473.914062 1259.484375 C 2506.753906 1376.949219 2523.171875 1501.992188 2523.171875 1629.5625 C 2523.171875 1704.082031 2515.59375 1769.761719 2501.703125 1827.859375 C 2487.808594 1885.960938 2467.597656 1937.746094 2441.074219 1981.953125 C 2441.074219 1983.21875 2441.074219 1983.21875 2439.8125 1984.480469 C 2410.761719 2033.738281 2369.082031 2077.945312 2316.03125 2109.523438 C 2266.773438 2138.574219 2208.671875 2157.519531 2141.730469 2161.308594 C 2086.15625 2163.832031 2031.84375 2158.78125 1978.796875 2141.097656 C 1925.746094 2123.417969 1873.960938 2093.101562 1820.914062 2042.582031 C 1786.8125 2009.742188 1748.917969 1965.535156 1712.292969 1916.273438 C 1670.609375 1860.699219 1628.929688 1797.546875 1593.5625 1738.183594 L 1414.210938 1437.578125 L 1357.371094 1537.359375 C 1357.371094 1538.621094 1357.371094 1538.621094 1357.371094 1539.882812 C 1289.167969 1659.875 1246.222656 1734.394531 1212.121094 1788.707031 C 1176.753906 1845.542969 1151.492188 1882.171875 1116.128906 1928.90625 C 1054.238281 2012.265625 996.136719 2069.105469 935.511719 2106.996094 C 872.359375 2144.886719 807.941406 2161.308594 734.683594 2161.308594 C 647.535156 2161.308594 578.066406 2142.363281 519.964844 2109.523438 C 463.128906 2076.683594 420.183594 2031.214844 386.082031 1976.902344 C 384.820312 1975.636719 384.820312 1974.375 383.554688 1973.113281 L 383.554688 1971.847656 L 382.292969 1971.847656 C 305.246094 1843.015625 288.828125 1673.769531 306.507812 1507.042969 C 330.507812 1296.113281 408.816406 1085.183594 490.914062 958.878906 Z M 597.011719 927.300781 C 579.328125 948.773438 562.910156 971.507812 547.753906 995.507812 C 470.707031 1114.234375 396.1875 1313.796875 373.453125 1513.359375 C 357.03125 1666.191406 370.925781 1819.019531 437.867188 1933.957031 C 439.128906 1935.21875 440.394531 1936.484375 440.394531 1937.746094 C 469.445312 1984.480469 506.070312 2023.632812 552.804688 2051.421875 C 600.800781 2079.210938 660.164062 2094.367188 734.683594 2094.367188 C 795.3125 2094.367188 848.359375 2080.472656 900.144531 2048.894531 C 953.195312 2017.320312 1006.242188 1964.269531 1063.082031 1888.488281 C 1095.917969 1844.28125 1121.179688 1807.652344 1155.285156 1753.339844 C 1189.386719 1699.027344 1231.066406 1624.507812 1298.007812 1505.78125 C 1299.273438 1505.78125 1299.273438 1504.519531 1299.273438 1504.519531 L 1383.898438 1354.214844 C 1386.421875 1350.425781 1391.476562 1345.375 1396.527344 1342.847656 C 1411.683594 1332.742188 1433.15625 1337.792969 1441.996094 1354.214844 L 1651.664062 1704.082031 C 1685.765625 1760.917969 1726.183594 1822.808594 1766.601562 1877.121094 C 1800.707031 1922.589844 1836.070312 1964.269531 1867.648438 1994.585938 C 1913.117188 2036.265625 1956.0625 2062.789062 2000.269531 2077.945312 C 2044.476562 2093.101562 2089.945312 2096.890625 2139.203125 2094.367188 C 2193.515625 2091.839844 2241.511719 2075.421875 2281.929688 2052.683594 C 2324.875 2026.160156 2357.714844 1990.796875 2381.710938 1950.378906 C 2382.972656 1949.113281 2382.972656 1949.113281 2382.972656 1947.851562 C 2405.710938 1908.695312 2424.65625 1864.488281 2436.023438 1812.703125 C 2448.652344 1759.65625 2456.230469 1699.027344 2456.230469 1629.5625 C 2456.230469 1508.308594 2439.8125 1388.316406 2409.5 1277.167969 C 2379.183594 1169.808594 2333.714844 1068.765625 2274.351562 979.085938 C 2220.039062 898.25 2156.886719 836.363281 2089.945312 794.679688 C 2023.003906 753 1952.273438 731.527344 1879.015625 731.527344 C 1795.652344 731.527344 1719.871094 766.894531 1652.925781 819.941406 C 1583.460938 874.253906 1521.570312 947.511719 1468.519531 1018.242188 C 1467.257812 1020.769531 1464.730469 1023.292969 1462.207031 1024.558594 C 1448.3125 1037.1875 1426.839844 1034.660156 1415.472656 1019.503906 C 1385.160156 981.613281 1356.109375 947.511719 1327.058594 917.195312 C 1299.273438 888.148438 1272.746094 864.148438 1246.222656 842.675781 C 1246.222656 841.414062 1244.960938 841.414062 1244.960938 840.152344 C 1227.277344 826.257812 1210.859375 813.625 1193.175781 803.523438 C 1089.605469 735.316406 979.71875 717.632812 878.675781 740.367188 C 775.101562 763.105469 677.847656 828.78125 597.011719 927.300781 Z M 2250.351562 1648.507812 C 2251.617188 1546.199219 2238.984375 1437.578125 2213.726562 1334.003906 C 2189.726562 1240.539062 2155.625 1152.125 2107.628906 1080.132812 C 2073.527344 1027.082031 2034.371094 984.140625 1991.425781 956.351562 C 1953.535156 929.828125 1911.855469 915.933594 1867.648438 915.933594 C 1814.597656 915.933594 1765.339844 939.933594 1719.871094 981.613281 C 1674.398438 1022.03125 1631.457031 1077.605469 1587.25 1144.546875 C 1635.246094 1215.277344 1692.082031 1308.746094 1748.917969 1404.738281 C 1841.121094 1555.039062 1933.324219 1709.132812 1995.214844 1784.917969 C 2021.738281 1815.230469 2043.210938 1835.4375 2063.421875 1848.070312 C 2081.105469 1858.175781 2098.785156 1861.964844 2118.996094 1861.964844 C 2168.253906 1861.964844 2199.832031 1840.492188 2218.777344 1806.390625 C 2241.511719 1765.972656 2249.089844 1709.132812 2250.351562 1648.507812 Z M 2279.402344 1317.585938 C 2305.929688 1426.207031 2318.558594 1541.148438 2317.296875 1648.507812 C 2316.03125 1720.5 2305.929688 1787.441406 2278.140625 1837.964844 C 2247.828125 1893.539062 2197.304688 1928.90625 2118.996094 1928.90625 C 2087.417969 1928.90625 2059.632812 1922.589844 2029.320312 1906.171875 C 2002.792969 1889.75 1975.007812 1864.488281 1943.429688 1826.597656 C 1879.015625 1748.289062 1784.285156 1591.667969 1692.082031 1438.839844 C 1630.191406 1337.792969 1570.828125 1239.277344 1519.042969 1163.492188 C 1512.726562 1152.125 1511.464844 1138.230469 1519.042969 1126.863281 C 1569.566406 1047.292969 1620.089844 980.351562 1675.664062 931.089844 C 1733.761719 879.304688 1795.652344 848.992188 1867.648438 848.992188 C 1924.484375 848.992188 1978.796875 866.675781 2029.320312 900.777344 C 2079.839844 933.617188 2125.3125 982.875 2164.464844 1043.503906 C 2216.25 1123.074219 2254.140625 1217.804688 2279.402344 1317.585938 Z M 2279.402344 1317.585938 " fill-opacity="1" fill-rule="nonzero"/></svg>