<svg xmlns="http://www.w3.org/2000/svg" xmlns:xlink="http://www.w3.org/1999/xlink" width="3750" zoomAndPan="magnify" viewBox="0 0 2812.5 2812.499955" height="3750" preserveAspectRatio="xMidYMid meet" version="1.0"><defs><clipPath id="e1eec9d83f"><path d="M 282 1029.703125 L 2530 1029.703125 L 2530 1429 L 282 1429 Z M 282 1029.703125 " clip-rule="nonzero"/></clipPath><clipPath id="2986933734"><path d="M 532 1470 L 1670 1470 L 1670 1782.570312 L 532 1782.570312 Z M 532 1470 " clip-rule="nonzero"/></clipPath></defs><g clip-path="url(#e1eec9d83f)"><path fill="#a6a6a6" d="M 392.308594 1428.773438 C 370.558594 1428.773438 351.382812 1424.023438 334.835938 1414.527344 C 318.289062 1404.726562 305.40625 1391.234375 296.210938 1374.054688 C 287.015625 1356.570312 282.417969 1336.515625 282.417969 1313.828125 C 282.417969 1286.542969 289.160156 1262.648438 302.652344 1242.109375 C 316.445312 1221.570312 335.894531 1205.78125 361.03125 1194.738281 C 386.472656 1183.699219 416.207031 1178.195312 450.234375 1178.195312 C 465.875 1178.195312 478.578125 1179.253906 488.410156 1181.398438 L 488.410156 1171.75 C 488.410156 1148.460938 484.113281 1131.125 475.523438 1119.785156 C 466.933594 1108.136719 453.925781 1102.300781 436.441406 1102.300781 C 408.25 1102.300781 390.160156 1117.152344 382.175781 1146.886719 C 379.726562 1155.476562 374.675781 1159.136719 366.992188 1157.925781 L 304.46875 1146.886719 C 299.871094 1145.980469 296.664062 1143.984375 294.816406 1140.898438 C 293.273438 1137.84375 293.125 1133.699219 294.363281 1128.496094 C 302.320312 1097.21875 319.199219 1073.019531 344.941406 1055.839844 C 370.984375 1038.445312 403.652344 1029.703125 442.886719 1029.703125 C 489.46875 1029.703125 524.859375 1042.257812 549.085938 1067.394531 C 573.621094 1092.53125 585.871094 1129.160156 585.871094 1177.285156 L 585.871094 1408.535156 C 585.871094 1411.894531 584.660156 1414.828125 582.179688 1417.277344 C 580.03125 1419.425781 577.28125 1420.484375 573.890625 1420.484375 L 514.121094 1420.484375 C 506.769531 1420.484375 502.171875 1416.492188 500.328125 1408.535156 L 491.132812 1365.3125 L 487.441406 1365.3125 C 479.152344 1385.546875 466.75 1401.15625 450.203125 1412.195312 C 433.960938 1423.238281 414.664062 1428.742188 392.277344 1428.742188 Z M 382.660156 1302.816406 C 382.660156 1319.0625 386.804688 1332.097656 395.0625 1341.898438 C 403.652344 1351.398438 415.148438 1356.144531 429.546875 1356.144531 C 448.542969 1356.144531 463.121094 1347.707031 473.222656 1330.859375 C 483.328125 1313.707031 488.410156 1289.175781 488.410156 1257.292969 L 488.410156 1232.914062 C 479.820312 1231.371094 471.710938 1230.613281 464.027344 1230.613281 C 438.890625 1230.613281 418.957031 1237.207031 404.257812 1250.398438 C 389.859375 1263.28125 382.660156 1280.738281 382.660156 1302.816406 Z M 642.859375 1049.941406 C 642.859375 1046.582031 643.945312 1043.800781 646.066406 1041.652344 C 648.515625 1039.203125 651.417969 1037.960938 654.804688 1037.960938 L 715.484375 1037.960938 C 718.84375 1037.960938 721.625 1039.019531 723.773438 1041.167969 C 726.222656 1043.316406 727.765625 1046.21875 728.371094 1049.910156 L 737.566406 1094.980469 L 741.257812 1094.980469 C 749.546875 1073.835938 761.34375 1057.742188 776.648438 1046.703125 C 792.285156 1035.359375 810.675781 1029.703125 831.820312 1029.703125 C 854.507812 1029.703125 873.957031 1035.691406 890.199219 1047.640625 C 906.746094 1059.589844 919.480469 1076.617188 928.375 1098.671875 L 932.066406 1098.671875 C 945.554688 1075.378906 960.710938 1058.046875 977.589844 1046.703125 C 994.4375 1035.359375 1013.28125 1029.703125 1034.125 1029.703125 C 1056.808594 1029.703125 1076.410156 1035.84375 1092.988281 1048.09375 C 1109.835938 1060.34375 1122.722656 1077.828125 1131.613281 1100.515625 C 1140.507812 1123.203125 1144.953125 1150 1144.953125 1180.976562 L 1144.953125 1408.566406 C 1144.953125 1411.925781 1143.714844 1414.859375 1141.265625 1417.308594 C 1139.117188 1419.457031 1136.363281 1420.515625 1132.976562 1420.515625 L 1059.410156 1420.515625 C 1056.054688 1420.515625 1053.121094 1419.457031 1050.667969 1417.308594 C 1048.523438 1414.859375 1047.464844 1411.953125 1047.464844 1408.566406 L 1047.464844 1188.328125 C 1047.464844 1165.941406 1043.167969 1148.792969 1034.578125 1136.84375 C 1025.988281 1124.894531 1013.585938 1118.90625 997.339844 1118.90625 C 979.554688 1118.90625 965.914062 1125.953125 956.414062 1140.050781 C 947.21875 1154.144531 942.621094 1174.535156 942.621094 1201.210938 L 942.621094 1408.566406 C 942.621094 1411.925781 941.382812 1414.859375 938.929688 1417.308594 C 936.785156 1419.457031 934.03125 1420.515625 930.644531 1420.515625 L 857.078125 1420.515625 C 853.722656 1420.515625 850.789062 1419.457031 848.335938 1417.308594 C 846.1875 1414.859375 845.128906 1411.953125 845.128906 1408.566406 L 845.128906 1188.328125 C 845.128906 1165.941406 840.835938 1148.792969 832.246094 1136.84375 C 823.652344 1124.894531 811.253906 1118.90625 795.007812 1118.90625 C 777.222656 1118.90625 763.582031 1125.953125 754.082031 1140.050781 C 744.886719 1154.144531 740.289062 1174.535156 740.289062 1201.210938 L 740.289062 1408.566406 C 740.289062 1411.925781 739.078125 1414.859375 736.597656 1417.308594 C 734.449219 1419.457031 731.699219 1420.515625 728.3125 1420.515625 L 654.746094 1420.515625 C 651.386719 1420.515625 648.453125 1419.457031 646.003906 1417.308594 C 643.855469 1414.859375 642.796875 1411.953125 642.796875 1408.566406 L 642.796875 1049.941406 Z M 1192.746094 1313.828125 C 1192.746094 1286.542969 1199.492188 1262.648438 1212.984375 1242.109375 C 1226.777344 1221.570312 1246.226562 1205.78125 1271.363281 1194.738281 C 1296.800781 1183.699219 1326.535156 1178.195312 1360.566406 1178.195312 C 1376.207031 1178.195312 1388.910156 1179.253906 1398.742188 1181.398438 L 1398.742188 1171.75 C 1398.742188 1148.460938 1394.445312 1131.125 1385.855469 1119.785156 C 1377.265625 1108.136719 1364.257812 1102.300781 1346.773438 1102.300781 C 1318.582031 1102.300781 1300.492188 1117.152344 1292.507812 1146.886719 C 1290.058594 1155.476562 1285.003906 1159.136719 1277.324219 1157.925781 L 1214.796875 1146.886719 C 1210.199219 1145.980469 1206.996094 1143.984375 1205.148438 1140.898438 C 1203.605469 1137.84375 1203.457031 1133.699219 1204.695312 1128.496094 C 1212.652344 1097.21875 1229.53125 1073.019531 1255.269531 1055.839844 C 1281.34375 1038.445312 1313.984375 1029.703125 1353.214844 1029.703125 C 1399.800781 1029.703125 1435.191406 1042.257812 1459.417969 1067.394531 C 1483.949219 1092.53125 1496.203125 1129.160156 1496.203125 1177.285156 L 1496.203125 1408.535156 C 1496.203125 1411.894531 1494.960938 1414.828125 1492.511719 1417.277344 C 1490.363281 1419.425781 1487.609375 1420.484375 1484.222656 1420.484375 L 1424.453125 1420.484375 C 1417.101562 1420.484375 1412.503906 1416.492188 1410.660156 1408.535156 L 1401.460938 1365.3125 L 1397.773438 1365.3125 C 1389.484375 1385.546875 1377.082031 1401.15625 1360.535156 1412.195312 C 1344.292969 1423.238281 1324.996094 1428.742188 1302.609375 1428.742188 C 1280.226562 1428.742188 1261.683594 1423.992188 1245.136719 1414.496094 C 1228.59375 1404.695312 1215.707031 1391.203125 1206.511719 1374.023438 C 1197.316406 1356.539062 1192.71875 1336.484375 1192.71875 1313.796875 Z M 1292.992188 1302.816406 C 1292.992188 1319.0625 1297.136719 1332.097656 1305.394531 1341.898438 C 1313.984375 1351.398438 1325.476562 1356.144531 1339.875 1356.144531 C 1358.871094 1356.144531 1373.453125 1347.707031 1383.554688 1330.859375 C 1393.660156 1313.707031 1398.742188 1289.175781 1398.742188 1257.292969 L 1398.742188 1232.914062 C 1390.148438 1231.371094 1382.042969 1230.613281 1374.359375 1230.613281 C 1349.222656 1230.613281 1329.289062 1237.207031 1314.589844 1250.398438 C 1300.191406 1263.28125 1292.992188 1280.738281 1292.992188 1302.816406 Z M 1545.871094 1352.910156 C 1545.871094 1346.164062 1547.714844 1340.355469 1551.375 1335.425781 L 1708.605469 1115.1875 L 1561.476562 1115.1875 C 1558.121094 1115.1875 1555.1875 1114.128906 1552.734375 1111.980469 C 1550.589844 1109.53125 1549.53125 1106.625 1549.53125 1103.238281 L 1549.53125 1049.941406 C 1549.53125 1046.582031 1550.617188 1043.800781 1552.734375 1041.652344 C 1555.1875 1039.203125 1558.089844 1037.960938 1561.476562 1037.960938 L 1803.316406 1037.960938 C 1806.703125 1037.960938 1809.457031 1039.203125 1811.601562 1041.652344 C 1814.054688 1043.800781 1815.292969 1046.550781 1815.292969 1049.941406 L 1815.292969 1105.566406 C 1815.292969 1112.3125 1813.449219 1118.121094 1809.789062 1123.050781 L 1667.257812 1318.910156 C 1675.847656 1317.367188 1684.589844 1316.609375 1693.453125 1316.609375 C 1715.535156 1316.609375 1735.738281 1318.609375 1754.132812 1322.601562 C 1772.824219 1326.289062 1792.125 1332.402344 1812.058594 1340.992188 C 1819.105469 1344.046875 1822.644531 1349.28125 1822.644531 1356.628906 L 1822.644531 1409.503906 C 1822.644531 1414.40625 1821.101562 1417.792969 1818.046875 1419.609375 C 1814.992188 1421.148438 1811.148438 1421 1806.550781 1419.152344 C 1783.5625 1410.5625 1763.175781 1404.605469 1745.390625 1401.214844 C 1727.90625 1397.527344 1708.757812 1395.710938 1687.917969 1395.710938 C 1667.074219 1395.710938 1647.140625 1397.554688 1627.238281 1401.214844 C 1607.636719 1404.90625 1585.859375 1410.867188 1561.960938 1419.152344 C 1557.363281 1420.695312 1553.523438 1420.695312 1550.46875 1419.152344 C 1547.414062 1417.308594 1545.871094 1414.101562 1545.871094 1409.503906 Z M 1842.851562 1229.253906 C 1842.851562 1191.867188 1850.050781 1157.988281 1864.449219 1127.648438 C 1878.847656 1097.007812 1898.628906 1073.078125 1923.765625 1055.929688 C 1949.234375 1038.445312 1977.425781 1029.703125 2008.371094 1029.703125 C 2039.316406 1029.703125 2067.839844 1038.445312 2092.976562 1055.898438 C 2118.414062 1073.050781 2138.347656 1096.976562 2152.746094 1127.617188 C 2167.449219 1157.957031 2174.828125 1191.835938 2174.828125 1229.222656 C 2174.828125 1266.609375 2167.476562 1300.640625 2152.746094 1331.28125 C 2138.347656 1361.621094 2118.414062 1385.546875 2092.976562 1403 C 2067.839844 1420.152344 2039.648438 1428.742188 2008.371094 1428.742188 C 1977.09375 1428.742188 1949.203125 1420.152344 1923.765625 1403 C 1898.628906 1385.515625 1878.875 1361.621094 1864.449219 1331.28125 C 1850.050781 1300.640625 1842.851562 1266.609375 1842.851562 1229.222656 Z M 1944 1229.253906 C 1944 1268.183594 1949.507812 1298.21875 1960.546875 1319.363281 C 1971.589844 1340.207031 1987.527344 1350.640625 2008.371094 1350.640625 C 2029.210938 1350.640625 2045.304688 1340.207031 2056.648438 1319.363281 C 2067.992188 1298.21875 2073.648438 1268.183594 2073.648438 1229.253906 C 2073.648438 1190.324219 2067.992188 1160.4375 2056.648438 1139.597656 C 2045.304688 1118.453125 2029.210938 1107.867188 2008.371094 1107.867188 C 1987.527344 1107.867188 1971.589844 1118.453125 1960.546875 1139.597656 C 1949.507812 1160.4375 1944 1190.324219 1944 1229.253906 Z M 2224.464844 1049.941406 C 2224.464844 1046.582031 2225.554688 1043.800781 2227.671875 1041.652344 C 2230.121094 1039.203125 2233.027344 1037.960938 2236.414062 1037.960938 L 2297.09375 1037.960938 C 2300.449219 1037.960938 2303.234375 1039.019531 2305.382812 1041.167969 C 2307.832031 1043.316406 2309.375 1046.21875 2309.980469 1049.910156 L 2319.175781 1094.980469 L 2322.863281 1094.980469 C 2331.152344 1074.136719 2343.253906 1058.046875 2359.195312 1046.703125 C 2375.4375 1035.359375 2394.433594 1029.703125 2416.183594 1029.703125 C 2439.472656 1029.703125 2459.558594 1035.84375 2476.40625 1048.09375 C 2493.585938 1060.34375 2506.746094 1077.828125 2515.941406 1100.515625 C 2525.136719 1123.203125 2529.734375 1150 2529.734375 1180.976562 L 2529.734375 1408.566406 C 2529.734375 1411.925781 2528.496094 1414.859375 2526.042969 1417.308594 C 2523.898438 1419.457031 2521.144531 1420.515625 2517.757812 1420.515625 L 2444.191406 1420.515625 C 2440.835938 1420.515625 2437.898438 1419.457031 2435.449219 1417.308594 C 2433.300781 1414.859375 2432.242188 1411.953125 2432.242188 1408.566406 L 2432.242188 1188.328125 C 2432.242188 1165.941406 2427.644531 1148.792969 2418.449219 1136.84375 C 2409.253906 1124.894531 2396.21875 1118.90625 2379.371094 1118.90625 C 2360.675781 1118.90625 2346.429688 1125.953125 2336.597656 1140.050781 C 2326.796875 1154.144531 2321.898438 1174.535156 2321.898438 1201.210938 L 2321.898438 1408.566406 C 2321.898438 1411.925781 2320.6875 1414.859375 2318.207031 1417.308594 C 2316.058594 1419.457031 2313.304688 1420.515625 2309.917969 1420.515625 L 2236.355469 1420.515625 C 2232.996094 1420.515625 2230.0625 1419.457031 2227.613281 1417.308594 C 2225.464844 1414.859375 2224.40625 1411.953125 2224.40625 1408.566406 L 2224.40625 1049.941406 Z M 2224.464844 1049.941406 " fill-opacity="1" fill-rule="nonzero"/></g><g clip-path="url(#2986933734)"><path fill="#a6a6a6" d="M 538.046875 1473.359375 C 532.207031 1477.957031 531 1485.609375 534.355469 1496.347656 C 537.410156 1505.847656 544.609375 1517.644531 555.953125 1531.738281 C 601.628906 1588.152344 656.015625 1635.039062 719.175781 1672.425781 C 782.304688 1709.8125 849.910156 1737.398438 921.933594 1755.183594 C 994.257812 1773.273438 1068.125 1782.320312 1143.53125 1782.320312 C 1240.085938 1782.320312 1332.042969 1768.222656 1419.398438 1740.03125 C 1506.757812 1712.140625 1579.71875 1672.910156 1638.25 1622.332031 C 1658.789062 1604.246094 1669.042969 1589.847656 1669.042969 1579.109375 C 1669.042969 1575.117188 1667.347656 1571.152344 1663.988281 1567.160156 C 1659.390625 1562.5625 1653.886719 1561.019531 1647.445312 1562.5625 C 1641 1564.105469 1631.957031 1567.917969 1620.3125 1574.058594 C 1564.230469 1603.488281 1495.867188 1626.929688 1415.257812 1644.414062 C 1334.945312 1662.203125 1251.128906 1671.09375 1163.769531 1671.09375 C 1055.570312 1671.09375 951.0625 1656.394531 850.210938 1626.960938 C 749.363281 1597.53125 660.007812 1551.550781 582.179688 1489.027344 C 570.835938 1480.136719 561.640625 1474.480469 554.59375 1472.027344 C 547.847656 1469.578125 542.34375 1470.03125 538.046875 1473.421875 Z M 538.046875 1473.359375 " fill-opacity="1" fill-rule="nonzero"/></g><path fill="#a6a6a6" d="M 1559.632812 1496.378906 C 1553.191406 1502.519531 1551.496094 1508.933594 1554.582031 1515.675781 C 1556.730469 1520.578125 1560.871094 1523.328125 1566.984375 1523.964844 C 1573.125 1524.871094 1581.835938 1524.269531 1593.179688 1522.121094 C 1611.570312 1518.128906 1630.714844 1515.375 1650.652344 1513.832031 C 1670.585938 1512.621094 1687.886719 1512.925781 1702.617188 1514.738281 C 1717.316406 1516.886719 1726.515625 1520.578125 1730.203125 1525.78125 C 1735.710938 1534.066406 1733.714844 1551.523438 1724.214844 1578.199219 C 1715.019531 1604.878906 1702.464844 1630.773438 1686.523438 1655.910156 C 1680.386719 1666.011719 1676.726562 1674 1675.484375 1679.804688 C 1674.273438 1685.613281 1675.785156 1690.542969 1680.082031 1694.507812 C 1682.835938 1697.257812 1685.890625 1698.652344 1689.277344 1698.652344 C 1698.171875 1698.652344 1711.058594 1690.847656 1727.90625 1675.207031 C 1758.246094 1648.863281 1779.539062 1617.585938 1791.820312 1581.40625 C 1798.566406 1562.714844 1802.710938 1543.082031 1804.222656 1522.542969 C 1805.765625 1502.003906 1803.464844 1487.304688 1797.324219 1478.410156 C 1791.519531 1469.820312 1778.632812 1462.773438 1758.699219 1457.265625 C 1739.097656 1451.761719 1719.316406 1448.980469 1699.382812 1448.980469 C 1660.449219 1448.980469 1623.519531 1458.175781 1588.582031 1476.566406 C 1575.695312 1483.613281 1566.046875 1490.207031 1559.601562 1496.347656 Z M 1559.632812 1496.378906 " fill-opacity="1" fill-rule="nonzero"/></svg>