<svg xmlns="http://www.w3.org/2000/svg" xmlns:xlink="http://www.w3.org/1999/xlink" width="3750" zoomAndPan="magnify" viewBox="0 0 2812.5 2812.499955" height="3750" preserveAspectRatio="xMidYMid meet" version="1.0"><defs><clipPath id="da782a9e4e"><path d="M 283 1046.0625 L 2529 1046.0625 L 2529 1765.9375 L 283 1765.9375 Z M 283 1046.0625 " clip-rule="nonzero"/></clipPath></defs><g clip-path="url(#da782a9e4e)"><path fill="#a6a6a6" d="M 2512.742188 1538.101562 C 2508.929688 1538.101562 2505.449219 1540.570312 2503.652344 1545.730469 C 2480.644531 1611.390625 2449.554688 1650.445312 2423.964844 1650.445312 C 2409.265625 1650.445312 2403.316406 1634.058594 2403.316406 1608.359375 C 2403.316406 1544.046875 2441.8125 1407.683594 2461.226562 1345.503906 C 2463.472656 1337.984375 2464.933594 1331.25 2464.933594 1325.527344 C 2464.933594 1307.457031 2455.054688 1298.589844 2430.589844 1298.589844 C 2404.214844 1298.589844 2375.816406 1308.917969 2348.207031 1357.289062 C 2338.667969 1314.640625 2309.824219 1296.011719 2269.53125 1296.011719 C 2222.953125 1296.011719 2177.949219 1325.976562 2140.910156 1374.574219 C 2103.875 1423.171875 2060.328125 1439.109375 2027.554688 1431.253906 C 2051.125 1373.5625 2059.878906 1330.464844 2059.878906 1298.480469 C 2059.878906 1248.308594 2035.074219 1218.007812 1995.007812 1218.007812 C 1934.0625 1218.007812 1898.933594 1276.144531 1898.933594 1337.3125 C 1898.933594 1384.5625 1920.371094 1433.160156 1967.507812 1456.730469 C 1928.003906 1546.070312 1870.3125 1626.878906 1848.429688 1626.878906 C 1820.144531 1626.878906 1811.839844 1488.492188 1813.410156 1389.5 C 1814.421875 1332.710938 1819.136719 1329.792969 1819.136719 1312.621094 C 1819.136719 1302.746094 1812.738281 1296.011719 1787.035156 1296.011719 C 1727.101562 1296.011719 1708.585938 1346.738281 1705.777344 1404.988281 C 1704.878906 1427.101562 1701.402344 1449.097656 1695.453125 1470.421875 C 1670.425781 1559.761719 1618.796875 1627.550781 1585.125 1627.550781 C 1569.527344 1627.550781 1565.261719 1611.949219 1565.261719 1591.523438 C 1565.261719 1527.214844 1601.289062 1446.851562 1601.289062 1378.277344 C 1601.289062 1327.882812 1579.179688 1296.011719 1537.539062 1296.011719 C 1488.492188 1296.011719 1423.621094 1354.371094 1362.230469 1463.6875 C 1382.429688 1379.960938 1390.734375 1298.929688 1330.914062 1298.929688 C 1317.894531 1299.152344 1305.214844 1302.40625 1293.765625 1308.582031 C 1285.910156 1312.285156 1281.082031 1320.363281 1281.644531 1329.007812 C 1287.367188 1418.121094 1209.8125 1646.40625 1136.300781 1646.40625 C 1122.945312 1646.40625 1116.433594 1631.929688 1116.433594 1608.582031 C 1116.433594 1544.160156 1154.820312 1408.132812 1174.125 1345.84375 C 1176.59375 1337.761719 1177.941406 1330.804688 1177.941406 1324.742188 C 1177.941406 1307.683594 1167.390625 1298.929688 1143.484375 1298.929688 C 1117.21875 1298.929688 1088.714844 1308.917969 1061.214844 1357.289062 C 1051.5625 1314.640625 1022.71875 1296.011719 982.425781 1296.011719 C 916.320312 1296.011719 842.472656 1365.933594 810.035156 1457.066406 C 766.601562 1578.730469 679.058594 1696.238281 561.210938 1696.238281 C 454.25 1696.238281 397.796875 1607.234375 397.796875 1466.605469 C 397.796875 1263.574219 546.84375 1097.691406 657.394531 1097.691406 C 710.257812 1097.691406 735.511719 1131.363281 735.511719 1182.988281 C 735.511719 1245.503906 700.605469 1274.574219 700.605469 1298.367188 C 700.605469 1305.664062 706.667969 1312.84375 718.675781 1312.84375 C 766.710938 1312.84375 823.277344 1256.390625 823.277344 1179.398438 C 823.277344 1102.40625 760.765625 1046.0625 650.214844 1046.0625 C 467.496094 1046.0625 283.65625 1229.902344 283.65625 1465.484375 C 283.65625 1652.914062 376.136719 1765.9375 536.070312 1765.9375 C 645.164062 1765.9375 740.449219 1681.085938 791.851562 1582.097656 C 797.6875 1664.140625 834.949219 1707.011719 891.742188 1707.011719 C 942.246094 1707.011719 983.101562 1676.933594 1014.300781 1624.070312 C 1026.3125 1679.402344 1058.183594 1706.453125 1099.601562 1706.453125 C 1147.074219 1706.453125 1186.804688 1676.371094 1224.628906 1620.480469 C 1224.066406 1664.363281 1234.058594 1705.664062 1272.105469 1705.664062 C 1290.0625 1705.664062 1311.5 1701.511719 1315.316406 1685.800781 C 1355.382812 1520.140625 1454.371094 1384.898438 1484.675781 1384.898438 C 1493.65625 1384.898438 1496.125 1393.542969 1496.125 1403.753906 C 1496.125 1448.761719 1464.363281 1541.019531 1464.363281 1599.941406 C 1464.363281 1663.578125 1491.410156 1705.664062 1547.304688 1705.664062 C 1609.257812 1705.664062 1672.21875 1629.796875 1714.195312 1518.90625 C 1727.328125 1622.5 1755.722656 1706.113281 1800.167969 1706.113281 C 1854.714844 1706.113281 1951.570312 1591.300781 2010.269531 1469.75 C 2033.277344 1472.667969 2067.847656 1471.882812 2101.066406 1448.425781 C 2086.925781 1484.226562 2078.621094 1523.398438 2078.621094 1562.566406 C 2078.621094 1675.363281 2132.492188 1707.011719 2178.847656 1707.011719 C 2229.238281 1707.011719 2270.09375 1676.933594 2301.40625 1624.070312 C 2311.730469 1671.769531 2338.105469 1706.339844 2386.59375 1706.339844 C 2462.460938 1706.339844 2528.34375 1628.785156 2528.34375 1565.148438 C 2528.34375 1548.3125 2521.160156 1538.101562 2512.742188 1538.101562 Z M 937.980469 1644.5 C 907.34375 1644.5 895.332031 1613.632812 895.332031 1567.617188 C 895.332031 1487.707031 949.992188 1354.261719 1007.792969 1354.261719 C 1033.042969 1354.261719 1042.585938 1384.003906 1042.585938 1420.367188 C 1042.585938 1501.511719 990.621094 1644.5 937.980469 1644.5 Z M 1987.488281 1406 C 1969.191406 1384.226562 1962.570312 1354.597656 1962.570312 1328.222656 C 1962.570312 1295.671875 1974.46875 1268.175781 1988.722656 1268.175781 C 2002.976562 1268.175781 2007.351562 1282.207031 2007.351562 1301.734375 C 2007.351562 1334.394531 1995.679688 1382.09375 1987.488281 1406 Z M 2225.085938 1644.5 C 2194.445312 1644.5 2182.4375 1609.03125 2182.4375 1567.617188 C 2182.4375 1490.511719 2237.097656 1354.261719 2295.347656 1354.261719 C 2320.597656 1354.261719 2329.578125 1383.777344 2329.578125 1420.367188 C 2329.578125 1501.511719 2278.511719 1644.5 2225.085938 1644.5 Z M 2225.085938 1644.5 " fill-opacity="1" fill-rule="nonzero"/></g></svg>