<svg xmlns="http://www.w3.org/2000/svg" xmlns:xlink="http://www.w3.org/1999/xlink" width="3750" zoomAndPan="magnify" viewBox="0 0 2812.5 2812.499955" height="3750" preserveAspectRatio="xMidYMid meet" version="1.0"><defs><clipPath id="06ebed5ab5"><path d="M 281.199219 1015.386719 L 889 1015.386719 L 889 1796.75 L 281.199219 1796.75 Z M 281.199219 1015.386719 " clip-rule="nonzero"/></clipPath><clipPath id="568f379e42"><path d="M 974 1015.386719 L 1577 1015.386719 L 1577 1796.75 L 974 1796.75 Z M 974 1015.386719 " clip-rule="nonzero"/></clipPath><clipPath id="baa2c48e15"><path d="M 2248 1219 L 2530.800781 1219 L 2530.800781 1784 L 2248 1784 Z M 2248 1219 " clip-rule="nonzero"/></clipPath></defs><g clip-path="url(#06ebed5ab5)"><path fill="#a6a6a6" d="M 584.832031 1693.207031 C 691.183594 1693.207031 773.402344 1610.992188 773.402344 1489.308594 L 773.402344 1015.773438 L 888.515625 1015.773438 L 888.515625 1783.136719 L 774.496094 1783.136719 L 774.496094 1711.871094 C 722.988281 1765.570312 651.71875 1796.277344 571.691406 1796.277344 C 407.261719 1796.277344 281.199219 1676.785156 281.199219 1495.929688 L 281.199219 1015.773438 L 396.3125 1015.773438 L 396.3125 1489.308594 C 396.3125 1613.179688 477.433594 1693.207031 584.882812 1693.207031 " fill-opacity="1" fill-rule="nonzero"/></g><g clip-path="url(#568f379e42)"><path fill="#a6a6a6" d="M 974.015625 1015.773438 L 1084.746094 1015.773438 L 1084.746094 1295.316406 C 1135.160156 1243.808594 1205.335938 1212.003906 1283.171875 1212.003906 C 1447.601562 1212.003906 1576.949219 1342.445312 1576.949219 1504.6875 C 1576.949219 1666.929688 1447.601562 1796.277344 1283.171875 1796.277344 C 1205.335938 1796.277344 1134.066406 1764.472656 1083.652344 1712.964844 L 1083.652344 1783.136719 L 974.015625 1783.136719 Z M 1275.457031 1698.679688 C 1380.714844 1698.679688 1467.308594 1612.085938 1467.308594 1504.636719 C 1467.308594 1397.1875 1380.714844 1310.59375 1275.457031 1310.59375 C 1170.195312 1310.59375 1082.507812 1396.09375 1082.507812 1504.636719 C 1082.507812 1613.179688 1168.007812 1698.679688 1275.457031 1698.679688 " fill-opacity="1" fill-rule="nonzero"/></g><path fill="#a6a6a6" d="M 1907.949219 1213.101562 C 2069.097656 1213.101562 2187.496094 1336.972656 2187.496094 1503.59375 L 2187.496094 1539.773438 L 1732.570312 1539.773438 C 1747.898438 1630.75 1823.542969 1698.734375 1917.804688 1698.734375 C 1982.449219 1698.734375 2037.296875 1672.40625 2078.949219 1616.515625 L 2158.976562 1675.6875 C 2103.089844 1750.242188 2019.777344 1795.179688 1917.804688 1795.179688 C 1750.085938 1795.179688 1620.742188 1670.214844 1620.742188 1503.59375 C 1620.742188 1345.730469 1744.613281 1213.101562 1907.949219 1213.101562 M 1734.757812 1452.085938 L 2075.667969 1452.085938 C 2057.054688 1366.585938 1987.976562 1309.601562 1905.761719 1309.601562 C 1823.542969 1309.601562 1754.464844 1366.585938 1734.761719 1452.085938 " fill-opacity="1" fill-rule="nonzero"/><g clip-path="url(#baa2c48e15)"><path fill="#a6a6a6" d="M 2484.558594 1322.6875 C 2412.195312 1322.6875 2359.589844 1378.574219 2359.589844 1465.171875 L 2359.589844 1783.085938 L 2248.855469 1783.085938 L 2248.855469 1224.046875 L 2358.496094 1224.046875 L 2358.496094 1293.125 C 2385.917969 1248.1875 2430.859375 1219.667969 2492.21875 1219.667969 L 2530.589844 1219.667969 L 2530.589844 1322.6875 Z M 2484.558594 1322.6875 " fill-opacity="1" fill-rule="nonzero"/></g></svg>