<svg xmlns="http://www.w3.org/2000/svg" xmlns:xlink="http://www.w3.org/1999/xlink" width="3750" zoomAndPan="magnify" viewBox="0 0 2812.5 2812.499955" height="3750" preserveAspectRatio="xMidYMid meet" version="1.0"><path fill="#a6a6a6" d="M 2158.832031 712.148438 C 2160.027344 712.59375 2161.085938 713.5 2161.683594 714.691406 C 2408.105469 1077.261719 2529.800781 1486.25 2484.269531 1957.046875 C 2484.117188 1959.011719 2483.078125 1960.804688 2481.417969 1962.019531 C 2294.828125 2099.148438 2114.035156 2182.390625 1935.726562 2237.574219 C 1932.875 2238.402344 1929.789062 2237.417969 1928.058594 2234.933594 C 1886.878906 2177.648438 1849.480469 2117.148438 1816.667969 2053.695312 C 1814.777344 2049.921875 1816.511719 2045.488281 1820.347656 2043.984375 C 1879.808594 2021.558594 1936.34375 1994.679688 1990.679688 1962.925781 C 1994.976562 1960.4375 1995.265625 1954.253906 1991.277344 1951.324219 C 1979.773438 1942.75 1968.328125 1933.714844 1957.402344 1924.753906 C 1955.300781 1923.097656 1952.585938 1922.730469 1950.253906 1923.847656 C 1597.335938 2086.953125 1210.761719 2086.953125 853.625 1923.847656 C 851.292969 1922.808594 848.519531 1923.171875 846.554688 1924.832031 C 835.648438 1933.792969 824.203125 1942.75 812.757812 1951.324219 C 808.84375 1954.253906 809.152344 1960.4375 813.429688 1962.925781 C 867.785156 1994.082031 924.300781 2021.558594 983.683594 2044.0625 C 987.519531 2045.566406 989.332031 2049.921875 987.460938 2053.695312 C 955.378906 2117.28125 917.980469 2177.726562 875.976562 2235.011719 C 874.183594 2237.417969 871.160156 2238.402344 868.308594 2237.574219 C 690.90625 2182.390625 510.113281 2099.148438 323.460938 1962.019531 C 321.878906 1960.804688 320.820312 1958.9375 320.589844 1956.96875 C 282.574219 1549.699219 360.109375 1137.320312 642.964844 714.636719 C 643.640625 713.5 644.679688 712.59375 645.894531 712.148438 C 785.070312 648.160156 934.242188 601.125 1090.042969 574.324219 C 1092.898438 573.882812 1095.769531 575.152344 1097.195312 577.714844 C 1116.460938 611.820312 1138.503906 655.539062 1153.339844 691.300781 C 1317.640625 666.234375 1484.503906 666.234375 1652.214844 691.300781 C 1667.109375 656.289062 1688.339844 611.820312 1707.53125 577.714844 C 1708.957031 575.074219 1711.808594 573.804688 1714.679688 574.324219 C 1870.617188 601.28125 2019.734375 648.234375 2158.832031 712.148438 Z M 1040.816406 1708.96875 C 1150.027344 1708.96875 1236.886719 1610.21875 1236.886719 1488.964844 C 1238.621094 1368.617188 1150.855469 1269.039062 1040.816406 1269.039062 C 931.527344 1269.039062 844.664062 1367.710938 844.664062 1488.964844 C 844.664062 1610.21875 933.261719 1708.96875 1040.816406 1708.96875 Z M 1765.855469 1708.96875 C 1875.976562 1708.96875 1961.929688 1610.21875 1961.929688 1488.964844 C 1963.664062 1368.617188 1875.976562 1269.039062 1765.855469 1269.039062 C 1656.644531 1269.039062 1569.707031 1367.710938 1569.707031 1488.964844 C 1569.707031 1610.21875 1658.300781 1708.96875 1765.855469 1708.96875 Z M 1765.855469 1708.96875 " fill-opacity="1" fill-rule="evenodd"/></svg>