<svg xmlns="http://www.w3.org/2000/svg" xmlns:xlink="http://www.w3.org/1999/xlink" width="3750" zoomAndPan="magnify" viewBox="0 0 2812.5 2812.499955" height="3750" preserveAspectRatio="xMidYMid meet" version="1.0"><defs><clipPath id="38f774194c"><path d="M 281.199219 281.199219 L 2530.800781 281.199219 L 2530.800781 2530.800781 L 281.199219 2530.800781 Z M 281.199219 281.199219 " clip-rule="nonzero"/></clipPath><clipPath id="fffa168782"><path d="M 2530.617188 1406.027344 C 2530.617188 1424.433594 2530.164062 1442.832031 2529.261719 1461.21875 C 2528.355469 1479.605469 2527.003906 1497.957031 2525.199219 1516.277344 C 2523.394531 1534.597656 2521.140625 1552.859375 2518.441406 1571.070312 C 2515.738281 1589.277344 2512.59375 1607.410156 2509.003906 1625.464844 C 2505.410156 1643.519531 2501.378906 1661.472656 2496.90625 1679.332031 C 2492.433594 1697.1875 2487.523438 1714.921875 2482.183594 1732.539062 C 2476.839844 1750.15625 2471.066406 1767.628906 2464.863281 1784.960938 C 2458.664062 1802.292969 2452.039062 1819.460938 2444.996094 1836.46875 C 2437.949219 1853.476562 2430.492188 1870.300781 2422.621094 1886.941406 C 2414.75 1903.582031 2406.476562 1920.019531 2397.800781 1936.253906 C 2389.121094 1952.488281 2380.050781 1968.5 2370.589844 1984.289062 C 2361.125 2000.078125 2351.277344 2015.625 2341.050781 2030.933594 C 2330.824219 2046.238281 2320.230469 2061.285156 2309.261719 2076.070312 C 2298.296875 2090.855469 2286.976562 2105.363281 2275.296875 2119.59375 C 2263.621094 2133.824219 2251.597656 2147.757812 2239.238281 2161.398438 C 2226.875 2175.035156 2214.183594 2188.363281 2201.167969 2201.378906 C 2188.152344 2214.398438 2174.824219 2227.085938 2161.183594 2239.449219 C 2147.546875 2251.8125 2133.609375 2263.832031 2119.378906 2275.507812 C 2105.152344 2287.1875 2090.644531 2298.507812 2075.859375 2309.476562 C 2061.070312 2320.441406 2046.027344 2331.035156 2030.71875 2341.265625 C 2015.414062 2351.492188 1999.867188 2361.335938 1984.078125 2370.800781 C 1968.289062 2380.261719 1952.277344 2389.335938 1936.042969 2398.011719 C 1919.808594 2406.691406 1903.371094 2414.964844 1886.730469 2422.835938 C 1870.089844 2430.703125 1853.265625 2438.164062 1836.257812 2445.207031 C 1819.25 2452.25 1802.082031 2458.875 1784.75 2465.074219 C 1767.417969 2471.277344 1749.941406 2477.050781 1732.328125 2482.394531 C 1714.710938 2487.738281 1696.976562 2492.644531 1679.121094 2497.117188 C 1661.261719 2501.589844 1643.308594 2505.621094 1625.253906 2509.214844 C 1607.199219 2512.804688 1589.066406 2515.953125 1570.859375 2518.652344 C 1552.648438 2521.355469 1534.382812 2523.605469 1516.066406 2525.410156 C 1497.746094 2527.214844 1479.390625 2528.570312 1461.007812 2529.472656 C 1442.621094 2530.375 1424.222656 2530.828125 1405.816406 2530.828125 C 1387.40625 2530.828125 1369.011719 2530.375 1350.625 2529.472656 C 1332.238281 2528.570312 1313.886719 2527.214844 1295.566406 2525.410156 C 1277.246094 2523.605469 1258.980469 2521.355469 1240.773438 2518.652344 C 1222.5625 2515.953125 1204.433594 2512.804688 1186.378906 2509.214844 C 1168.324219 2505.621094 1150.367188 2501.589844 1132.511719 2497.117188 C 1114.65625 2492.644531 1096.917969 2487.738281 1079.304688 2482.394531 C 1061.6875 2477.050781 1044.214844 2471.277344 1026.882812 2465.074219 C 1009.550781 2458.875 992.378906 2452.25 975.371094 2445.207031 C 958.367188 2438.164062 941.542969 2430.703125 924.902344 2422.835938 C 908.261719 2414.964844 891.824219 2406.691406 875.589844 2398.011719 C 859.355469 2389.335938 843.339844 2380.261719 827.550781 2370.800781 C 811.761719 2361.335938 796.214844 2351.492188 780.910156 2341.265625 C 765.605469 2331.035156 750.558594 2320.441406 735.773438 2309.476562 C 720.988281 2298.507812 706.480469 2287.1875 692.25 2275.507812 C 678.019531 2263.832031 664.085938 2251.8125 650.445312 2239.449219 C 636.804688 2227.085938 623.476562 2214.398438 610.460938 2201.378906 C 597.445312 2188.363281 584.753906 2175.035156 572.394531 2161.394531 C 560.03125 2147.757812 548.011719 2133.820312 536.332031 2119.59375 C 524.65625 2105.363281 513.332031 2090.855469 502.367188 2076.070312 C 491.402344 2061.285156 480.804688 2046.238281 470.578125 2030.933594 C 460.351562 2015.625 450.507812 2000.078125 441.042969 1984.289062 C 431.578125 1968.5 422.507812 1952.488281 413.832031 1936.253906 C 405.152344 1920.019531 396.878906 1903.582031 389.007812 1886.941406 C 381.136719 1870.300781 373.679688 1853.476562 366.636719 1836.46875 C 359.589844 1819.460938 352.96875 1802.292969 346.765625 1784.960938 C 340.566406 1767.628906 334.792969 1750.15625 329.449219 1732.539062 C 324.105469 1714.921875 319.195312 1697.1875 314.722656 1679.332031 C 310.25 1661.472656 306.21875 1643.519531 302.628906 1625.464844 C 299.035156 1607.410156 295.890625 1589.277344 293.191406 1571.070312 C 290.488281 1552.859375 288.234375 1534.597656 286.429688 1516.277344 C 284.628906 1497.957031 283.273438 1479.605469 282.371094 1461.21875 C 281.46875 1442.832031 281.015625 1424.433594 281.015625 1406.027344 C 281.015625 1387.617188 281.46875 1369.222656 282.371094 1350.835938 C 283.273438 1332.449219 284.628906 1314.097656 286.429688 1295.777344 C 288.234375 1277.457031 290.488281 1259.195312 293.191406 1240.984375 C 295.890625 1222.777344 299.035156 1204.644531 302.628906 1186.589844 C 306.21875 1168.535156 310.25 1150.578125 314.722656 1132.722656 C 319.195312 1114.867188 324.105469 1097.128906 329.449219 1079.515625 C 334.792969 1061.898438 340.566406 1044.425781 346.765625 1027.09375 C 352.96875 1009.761719 359.589844 992.589844 366.636719 975.585938 C 373.679688 958.578125 381.136719 941.753906 389.007812 925.113281 C 396.878906 908.472656 405.152344 892.035156 413.832031 875.800781 C 422.507812 859.566406 431.578125 843.554688 441.042969 827.765625 C 450.507812 811.976562 460.351562 796.425781 470.578125 781.121094 C 480.804688 765.816406 491.402344 750.769531 502.367188 735.984375 C 513.332031 721.199219 524.65625 706.691406 536.332031 692.460938 C 548.011719 678.230469 560.03125 664.296875 572.394531 650.65625 C 584.753906 637.019531 597.445312 623.691406 610.460938 610.671875 C 623.476562 597.65625 636.804688 584.96875 650.445312 572.605469 C 664.085938 560.242188 678.019531 548.222656 692.25 536.542969 C 706.480469 524.867188 720.988281 513.542969 735.773438 502.578125 C 750.558594 491.613281 765.605469 481.015625 780.910156 470.789062 C 796.214844 460.5625 811.761719 450.71875 827.550781 441.253906 C 843.339844 431.789062 859.355469 422.71875 875.589844 414.042969 C 891.824219 405.363281 908.261719 397.089844 924.902344 389.21875 C 941.542969 381.347656 958.367188 373.890625 975.371094 366.847656 C 992.378906 359.800781 1009.550781 353.179688 1026.882812 346.976562 C 1044.214844 340.777344 1061.6875 335.003906 1079.304688 329.660156 C 1096.917969 324.316406 1114.65625 319.410156 1132.511719 314.9375 C 1150.367188 310.464844 1168.324219 306.429688 1186.378906 302.839844 C 1204.433594 299.25 1222.5625 296.101562 1240.773438 293.402344 C 1258.980469 290.699219 1277.246094 288.449219 1295.566406 286.644531 C 1313.886719 284.839844 1332.238281 283.484375 1350.625 282.582031 C 1369.011719 281.679688 1387.40625 281.226562 1405.816406 281.226562 C 1424.222656 281.226562 1442.621094 281.679688 1461.007812 282.582031 C 1479.390625 283.484375 1497.746094 284.839844 1516.066406 286.644531 C 1534.382812 288.449219 1552.648438 290.699219 1570.859375 293.402344 C 1589.066406 296.101562 1607.199219 299.25 1625.253906 302.839844 C 1643.308594 306.429688 1661.261719 310.464844 1679.121094 314.9375 C 1696.976562 319.410156 1714.710938 324.316406 1732.328125 329.660156 C 1749.941406 335.003906 1767.417969 340.777344 1784.75 346.976562 C 1802.082031 353.179688 1819.25 359.800781 1836.257812 366.847656 C 1853.265625 373.890625 1870.089844 381.347656 1886.730469 389.21875 C 1903.371094 397.089844 1919.808594 405.363281 1936.042969 414.042969 C 1952.277344 422.71875 1968.289062 431.789062 1984.078125 441.253906 C 1999.867188 450.71875 2015.414062 460.5625 2030.71875 470.789062 C 2046.027344 481.015625 2061.070312 491.613281 2075.859375 502.578125 C 2090.644531 513.542969 2105.152344 524.867188 2119.378906 536.542969 C 2133.609375 548.222656 2147.546875 560.242188 2161.183594 572.605469 C 2174.824219 584.96875 2188.152344 597.65625 2201.167969 610.671875 C 2214.183594 623.691406 2226.875 637.019531 2239.238281 650.65625 C 2251.597656 664.296875 2263.621094 678.230469 2275.296875 692.460938 C 2286.976562 706.691406 2298.296875 721.199219 2309.261719 735.984375 C 2320.230469 750.769531 2330.824219 765.816406 2341.050781 781.121094 C 2351.277344 796.425781 2361.125 811.976562 2370.589844 827.765625 C 2380.050781 843.554688 2389.121094 859.566406 2397.800781 875.800781 C 2406.476562 892.035156 2414.75 908.472656 2422.621094 925.113281 C 2430.492188 941.753906 2437.949219 958.578125 2444.996094 975.585938 C 2452.039062 992.589844 2458.664062 1009.761719 2464.863281 1027.09375 C 2471.066406 1044.425781 2476.839844 1061.898438 2482.183594 1079.515625 C 2487.523438 1097.128906 2492.433594 1114.867188 2496.90625 1132.722656 C 2501.378906 1150.578125 2505.410156 1168.535156 2509.003906 1186.589844 C 2512.59375 1204.644531 2515.738281 1222.777344 2518.441406 1240.984375 C 2521.140625 1259.195312 2523.394531 1277.457031 2525.199219 1295.777344 C 2527.003906 1314.097656 2528.355469 1332.449219 2529.261719 1350.835938 C 2530.164062 1369.222656 2530.617188 1387.617188 2530.617188 1406.027344 Z M 2530.617188 1406.027344 " clip-rule="nonzero"/></clipPath><linearGradient x1="0.000082152" gradientTransform="matrix(2247.972424, 0, 0, 2247.972624, 281.01534, 1405.212482)" y1="0" x2="1.000724" gradientUnits="userSpaceOnUse" y2="0" id="09a3df534f"><stop stop-opacity="1" stop-color="rgb(65.101624%, 65.101624%, 65.101624%)" offset="0"/><stop stop-opacity="1" stop-color="rgb(65.257263%, 65.257263%, 65.257263%)" offset="0.015625"/><stop stop-opacity="1" stop-color="rgb(65.568542%, 65.568542%, 65.568542%)" offset="0.03125"/><stop stop-opacity="1" stop-color="rgb(65.881348%, 65.881348%, 65.881348%)" offset="0.046875"/><stop stop-opacity="1" stop-color="rgb(66.194153%, 66.194153%, 66.194153%)" offset="0.0625"/><stop stop-opacity="1" stop-color="rgb(66.506958%, 66.506958%, 66.506958%)" offset="0.078125"/><stop stop-opacity="1" stop-color="rgb(66.819763%, 66.819763%, 66.819763%)" offset="0.09375"/><stop stop-opacity="1" stop-color="rgb(67.132568%, 67.132568%, 67.132568%)" offset="0.109375"/><stop stop-opacity="1" stop-color="rgb(67.445374%, 67.445374%, 67.445374%)" offset="0.125"/><stop stop-opacity="1" stop-color="rgb(67.758179%, 67.758179%, 67.758179%)" offset="0.140625"/><stop stop-opacity="1" stop-color="rgb(68.070984%, 68.070984%, 68.070984%)" offset="0.15625"/><stop stop-opacity="1" stop-color="rgb(68.383789%, 68.383789%, 68.383789%)" offset="0.171875"/><stop stop-opacity="1" stop-color="rgb(68.696594%, 68.696594%, 68.696594%)" offset="0.1875"/><stop stop-opacity="1" stop-color="rgb(69.009399%, 69.009399%, 69.009399%)" offset="0.203125"/><stop stop-opacity="1" stop-color="rgb(69.322205%, 69.322205%, 69.322205%)" offset="0.21875"/><stop stop-opacity="1" stop-color="rgb(69.63501%, 69.63501%, 69.63501%)" offset="0.234375"/><stop stop-opacity="1" stop-color="rgb(69.946289%, 69.946289%, 69.946289%)" offset="0.25"/><stop stop-opacity="1" stop-color="rgb(70.259094%, 70.259094%, 70.259094%)" offset="0.265625"/><stop stop-opacity="1" stop-color="rgb(70.571899%, 70.571899%, 70.571899%)" offset="0.28125"/><stop stop-opacity="1" stop-color="rgb(70.884705%, 70.884705%, 70.884705%)" offset="0.296875"/><stop stop-opacity="1" stop-color="rgb(71.19751%, 71.19751%, 71.19751%)" offset="0.3125"/><stop stop-opacity="1" stop-color="rgb(71.510315%, 71.510315%, 71.510315%)" offset="0.328125"/><stop stop-opacity="1" stop-color="rgb(71.82312%, 71.82312%, 71.82312%)" offset="0.34375"/><stop stop-opacity="1" stop-color="rgb(72.135925%, 72.135925%, 72.135925%)" offset="0.359375"/><stop stop-opacity="1" stop-color="rgb(72.44873%, 72.44873%, 72.44873%)" offset="0.375"/><stop stop-opacity="1" stop-color="rgb(72.761536%, 72.761536%, 72.761536%)" offset="0.390625"/><stop stop-opacity="1" stop-color="rgb(73.074341%, 73.074341%, 73.074341%)" offset="0.40625"/><stop stop-opacity="1" stop-color="rgb(73.387146%, 73.387146%, 73.387146%)" offset="0.421875"/><stop stop-opacity="1" stop-color="rgb(73.699951%, 73.699951%, 73.699951%)" offset="0.4375"/><stop stop-opacity="1" stop-color="rgb(74.012756%, 74.012756%, 74.012756%)" offset="0.453125"/><stop stop-opacity="1" stop-color="rgb(74.325562%, 74.325562%, 74.325562%)" offset="0.46875"/><stop stop-opacity="1" stop-color="rgb(74.636841%, 74.636841%, 74.636841%)" offset="0.484375"/><stop stop-opacity="1" stop-color="rgb(74.949646%, 74.949646%, 74.949646%)" offset="0.5"/><stop stop-opacity="1" stop-color="rgb(75.262451%, 75.262451%, 75.262451%)" offset="0.515625"/><stop stop-opacity="1" stop-color="rgb(75.575256%, 75.575256%, 75.575256%)" offset="0.53125"/><stop stop-opacity="1" stop-color="rgb(75.888062%, 75.888062%, 75.888062%)" offset="0.546875"/><stop stop-opacity="1" stop-color="rgb(76.200867%, 76.200867%, 76.200867%)" offset="0.5625"/><stop stop-opacity="1" stop-color="rgb(76.513672%, 76.513672%, 76.513672%)" offset="0.578125"/><stop stop-opacity="1" stop-color="rgb(76.826477%, 76.826477%, 76.826477%)" offset="0.59375"/><stop stop-opacity="1" stop-color="rgb(77.139282%, 77.139282%, 77.139282%)" offset="0.609375"/><stop stop-opacity="1" stop-color="rgb(77.452087%, 77.452087%, 77.452087%)" offset="0.625"/><stop stop-opacity="1" stop-color="rgb(77.764893%, 77.764893%, 77.764893%)" offset="0.640625"/><stop stop-opacity="1" stop-color="rgb(78.077698%, 78.077698%, 78.077698%)" offset="0.65625"/><stop stop-opacity="1" stop-color="rgb(78.390503%, 78.390503%, 78.390503%)" offset="0.671875"/><stop stop-opacity="1" stop-color="rgb(78.703308%, 78.703308%, 78.703308%)" offset="0.6875"/><stop stop-opacity="1" stop-color="rgb(79.014587%, 79.014587%, 79.014587%)" offset="0.703125"/><stop stop-opacity="1" stop-color="rgb(79.327393%, 79.327393%, 79.327393%)" offset="0.71875"/><stop stop-opacity="1" stop-color="rgb(79.640198%, 79.640198%, 79.640198%)" offset="0.734375"/><stop stop-opacity="1" stop-color="rgb(79.953003%, 79.953003%, 79.953003%)" offset="0.75"/><stop stop-opacity="1" stop-color="rgb(80.265808%, 80.265808%, 80.265808%)" offset="0.765625"/><stop stop-opacity="1" stop-color="rgb(80.578613%, 80.578613%, 80.578613%)" offset="0.78125"/><stop stop-opacity="1" stop-color="rgb(80.891418%, 80.891418%, 80.891418%)" offset="0.796875"/><stop stop-opacity="1" stop-color="rgb(81.204224%, 81.204224%, 81.204224%)" offset="0.8125"/><stop stop-opacity="1" stop-color="rgb(81.517029%, 81.517029%, 81.517029%)" offset="0.828125"/><stop stop-opacity="1" stop-color="rgb(81.829834%, 81.829834%, 81.829834%)" offset="0.84375"/><stop stop-opacity="1" stop-color="rgb(82.142639%, 82.142639%, 82.142639%)" offset="0.859375"/><stop stop-opacity="1" stop-color="rgb(82.455444%, 82.455444%, 82.455444%)" offset="0.875"/><stop stop-opacity="1" stop-color="rgb(82.76825%, 82.76825%, 82.76825%)" offset="0.890625"/><stop stop-opacity="1" stop-color="rgb(83.081055%, 83.081055%, 83.081055%)" offset="0.90625"/><stop stop-opacity="1" stop-color="rgb(83.39386%, 83.39386%, 83.39386%)" offset="0.921875"/><stop stop-opacity="1" stop-color="rgb(83.705139%, 83.705139%, 83.705139%)" offset="0.9375"/><stop stop-opacity="1" stop-color="rgb(84.017944%, 84.017944%, 84.017944%)" offset="0.953125"/><stop stop-opacity="1" stop-color="rgb(84.33075%, 84.33075%, 84.33075%)" offset="0.96875"/><stop stop-opacity="1" stop-color="rgb(84.643555%, 84.643555%, 84.643555%)" offset="0.984375"/><stop stop-opacity="1" stop-color="rgb(84.950256%, 84.950256%, 84.950256%)" offset="1"/></linearGradient></defs><g clip-path="url(#38f774194c)"><g clip-path="url(#fffa168782)"><path fill="url(#09a3df534f)" d="M 281.199219 281.226562 L 281.199219 2530.800781 L 2530.617188 2530.800781 L 2530.617188 281.226562 Z M 281.199219 281.226562 " fill-rule="nonzero"/></g></g><path fill="#ffffff" d="M 789.101562 1393.761719 C 1116.730469 1250.097656 1335.734375 1157.238281 1446.113281 1111.6875 C 1757.972656 982.035156 1822.796875 959.261719 1864.847656 957.507812 C 1873.605469 957.507812 1894.628906 959.261719 1908.648438 969.773438 C 1919.160156 978.53125 1922.664062 990.796875 1924.414062 999.558594 C 1926.167969 1008.316406 1927.917969 1027.589844 1926.167969 1043.359375 C 1908.648438 1220.3125 1836.8125 1653.0625 1798.269531 1851.042969 C 1782.5 1935.140625 1750.964844 1963.171875 1721.179688 1966.675781 C 1656.355469 1971.929688 1605.546875 1922.875 1542.472656 1882.578125 C 1444.359375 1817.753906 1388.296875 1777.457031 1291.933594 1714.382812 C 1181.554688 1640.796875 1253.390625 1600.5 1316.460938 1535.675781 C 1332.230469 1518.15625 1621.3125 1257.105469 1626.570312 1232.578125 C 1626.570312 1229.074219 1628.324219 1218.558594 1621.3125 1213.304688 C 1614.304688 1208.046875 1605.546875 1209.800781 1598.539062 1211.550781 C 1588.027344 1213.304688 1430.34375 1318.425781 1123.738281 1525.164062 C 1078.1875 1556.703125 1037.890625 1570.71875 1001.097656 1570.71875 C 960.800781 1570.71875 883.710938 1547.941406 825.894531 1528.667969 C 755.8125 1505.890625 699.75 1493.628906 705.003906 1455.082031 C 708.507812 1435.8125 736.542969 1414.789062 789.101562 1393.761719 Z M 789.101562 1393.761719 " fill-opacity="1" fill-rule="evenodd"/></svg>